<mxfile host="65bd71144e" modified="2020-12-22T21:00:29.355Z" agent="5.0 (Windows NT 10.0; Win64; x64) AppleWebKit/537.36 (KHTML, like Gecko) Code/1.52.1 Chrome/83.0.4103.122 Electron/9.3.5 Safari/537.36" etag="oh-BfHwCUPsuD5B9LPiH" version="13.10.0" type="embed">
    <diagram id="DqwIvfknlscuTBBRpgxf" name="Page-1">
        <mxGraphModel dx="1521" dy="265" grid="1" gridSize="10" guides="1" tooltips="1" connect="1" arrows="1" fold="1" page="1" pageScale="1" pageWidth="827" pageHeight="1169" math="0" shadow="0">
            <root>
                <mxCell id="0"/>
                <mxCell id="1" parent="0"/>
                <mxCell id="hDUl_mrgvE461zw6lqxG-23" value="" style="rounded=1;whiteSpace=wrap;html=1;absoluteArcSize=1;arcSize=14;strokeWidth=2;fontSize=14;fillColor=#f9f7ed;strokeColor=#36393d;" parent="1" vertex="1">
                    <mxGeometry x="589.9999999999998" y="470" width="180" height="220" as="geometry"/>
                </mxCell>
                <mxCell id="hDUl_mrgvE461zw6lqxG-12" value="" style="rounded=1;whiteSpace=wrap;html=1;absoluteArcSize=1;arcSize=14;strokeWidth=2;" parent="1" vertex="1">
                    <mxGeometry x="180" y="79.75" width="630" height="296.5" as="geometry"/>
                </mxCell>
                <mxCell id="hDUl_mrgvE461zw6lqxG-2" value="" style="shape=mxgraph.cisco.computers_and_peripherals.web_browser;html=1;pointerEvents=1;dashed=0;fillColor=#036897;strokeColor=#ffffff;strokeWidth=2;verticalLabelPosition=bottom;verticalAlign=top;align=center;outlineConnect=0;" parent="1" vertex="1">
                    <mxGeometry x="-190" y="162" width="142" height="130" as="geometry"/>
                </mxCell>
                <mxCell id="hDUl_mrgvE461zw6lqxG-4" value="User" style="text;strokeColor=none;fillColor=none;html=1;fontSize=24;fontStyle=1;verticalAlign=middle;align=center;" parent="1" vertex="1">
                    <mxGeometry x="-169" y="69" width="100" height="40" as="geometry"/>
                </mxCell>
                <mxCell id="hDUl_mrgvE461zw6lqxG-6" value="" style="rounded=1;whiteSpace=wrap;html=1;absoluteArcSize=1;arcSize=14;strokeWidth=2;fillColor=#f9f7ed;strokeColor=#36393d;" parent="1" vertex="1">
                    <mxGeometry x="220" y="124" width="180" height="220" as="geometry"/>
                </mxCell>
                <mxCell id="hDUl_mrgvE461zw6lqxG-8" value="Frontend" style="text;strokeColor=none;fillColor=none;html=1;fontSize=24;fontStyle=1;verticalAlign=middle;align=center;" parent="1" vertex="1">
                    <mxGeometry x="260" y="124" width="100" height="40" as="geometry"/>
                </mxCell>
                <mxCell id="hDUl_mrgvE461zw6lqxG-10" value="" style="shape=image;html=1;verticalAlign=top;verticalLabelPosition=bottom;labelBackgroundColor=#ffffff;imageAspect=0;aspect=fixed;image=https://cdn4.iconfinder.com/data/icons/logos-3/600/React.js_logo-128.png" parent="1" vertex="1">
                    <mxGeometry x="246" y="164" width="128" height="128" as="geometry"/>
                </mxCell>
                <mxCell id="hDUl_mrgvE461zw6lqxG-11" value="EJS" style="text;strokeColor=none;fillColor=none;html=1;fontSize=24;fontStyle=1;verticalAlign=middle;align=center;" parent="1" vertex="1">
                    <mxGeometry x="260" y="292" width="100" height="40" as="geometry"/>
                </mxCell>
                <mxCell id="hDUl_mrgvE461zw6lqxG-14" value="" style="rounded=1;whiteSpace=wrap;html=1;absoluteArcSize=1;arcSize=14;strokeWidth=2;fillColor=#f9f7ed;strokeColor=#36393d;" parent="1" vertex="1">
                    <mxGeometry x="590" y="124" width="180" height="220" as="geometry"/>
                </mxCell>
                <mxCell id="hDUl_mrgvE461zw6lqxG-15" value="Backend" style="text;strokeColor=none;fillColor=none;html=1;fontSize=24;fontStyle=1;verticalAlign=middle;align=center;" parent="1" vertex="1">
                    <mxGeometry x="630" y="124" width="100" height="40" as="geometry"/>
                </mxCell>
                <mxCell id="hDUl_mrgvE461zw6lqxG-17" value="Application" style="text;strokeColor=none;fillColor=none;html=1;fontSize=24;fontStyle=1;verticalAlign=middle;align=center;" parent="1" vertex="1">
                    <mxGeometry x="425" y="10" width="100" height="40" as="geometry"/>
                </mxCell>
                <mxCell id="hDUl_mrgvE461zw6lqxG-21" value="API requests" style="endArrow=classic;html=1;fontStyle=1;fontSize=14;exitX=0.996;exitY=0.341;exitDx=0;exitDy=0;exitPerimeter=0;labelBorderColor=none;rounded=0;entryX=-0.002;entryY=0.345;entryDx=0;entryDy=0;entryPerimeter=0;verticalAlign=bottom;" parent="1" source="hDUl_mrgvE461zw6lqxG-6" target="hDUl_mrgvE461zw6lqxG-14" edge="1">
                    <mxGeometry width="50" height="50" relative="1" as="geometry">
                        <mxPoint x="440" y="210" as="sourcePoint"/>
                        <mxPoint x="590" y="197" as="targetPoint"/>
                    </mxGeometry>
                </mxCell>
                <mxCell id="hDUl_mrgvE461zw6lqxG-22" value="HTML&amp;nbsp;responses" style="endArrow=classic;html=1;horizontal=1;exitX=0.007;exitY=0.715;exitDx=0;exitDy=0;exitPerimeter=0;fontSize=14;fontStyle=1;entryX=1.009;entryY=0.581;entryDx=0;entryDy=0;entryPerimeter=0;verticalAlign=top;rounded=0;" parent="1" target="hDUl_mrgvE461zw6lqxG-6" edge="1">
                    <mxGeometry width="50" height="50" relative="1" as="geometry">
                        <mxPoint x="591.2600000000002" y="251.29999999999995" as="sourcePoint"/>
                        <mxPoint x="440" y="251.29999999999995" as="targetPoint"/>
                    </mxGeometry>
                </mxCell>
                <mxCell id="hDUl_mrgvE461zw6lqxG-24" value="Redis" style="text;strokeColor=none;fillColor=none;html=1;fontSize=24;fontStyle=1;verticalAlign=middle;align=center;" parent="1" vertex="1">
                    <mxGeometry x="630" y="620" width="100" height="40" as="geometry"/>
                </mxCell>
                <mxCell id="hDUl_mrgvE461zw6lqxG-25" value="Query the data" style="endArrow=classic;html=1;fontSize=14;entryX=0.5;entryY=1;entryDx=0;entryDy=0;fontStyle=1;verticalAlign=middle;rounded=0;jumpSize=6;shadow=0;sketch=0;exitX=0.5;exitY=0;exitDx=0;exitDy=0;startArrow=classic;startFill=1;align=right;" parent="1" source="hDUl_mrgvE461zw6lqxG-23" target="hDUl_mrgvE461zw6lqxG-14" edge="1">
                    <mxGeometry x="-0.2063" y="10" width="50" height="50" relative="1" as="geometry">
                        <mxPoint x="680" y="450" as="sourcePoint"/>
                        <mxPoint x="700" y="360" as="targetPoint"/>
                        <mxPoint as="offset"/>
                    </mxGeometry>
                </mxCell>
                <mxCell id="hDUl_mrgvE461zw6lqxG-27" value="Access the application" style="endArrow=classic;startArrow=classic;html=1;shadow=0;fontSize=14;entryX=0;entryY=0.5;entryDx=0;entryDy=0;horizontal=1;verticalAlign=bottom;fontStyle=1;align=center;labelBorderColor=none;rounded=0;" parent="1" source="hDUl_mrgvE461zw6lqxG-2" target="hDUl_mrgvE461zw6lqxG-12" edge="1">
                    <mxGeometry x="-0.058" y="8" width="50" height="50" relative="1" as="geometry">
                        <mxPoint x="90" y="250" as="sourcePoint"/>
                        <mxPoint x="140" y="200" as="targetPoint"/>
                        <mxPoint as="offset"/>
                    </mxGeometry>
                </mxCell>
                <mxCell id="no3QTMKMuGNAWSqg1L_2-1" value="" style="outlineConnect=0;dashed=0;verticalLabelPosition=bottom;verticalAlign=top;align=center;html=1;shape=mxgraph.aws3.android;fillColor=#8CC64F;gradientColor=none;" parent="1" vertex="1">
                    <mxGeometry x="643.25" y="192" width="73.5" height="84" as="geometry"/>
                </mxCell>
                <mxCell id="no3QTMKMuGNAWSqg1L_2-4" value="Node.js" style="text;strokeColor=none;fillColor=none;html=1;fontSize=24;fontStyle=1;verticalAlign=middle;align=center;" parent="1" vertex="1">
                    <mxGeometry x="630" y="292" width="100" height="40" as="geometry"/>
                </mxCell>
                <mxCell id="2" value="" style="outlineConnect=0;dashed=0;verticalLabelPosition=bottom;verticalAlign=top;align=center;html=1;shape=mxgraph.aws3.redis;fillColor=#2E73B8;gradientColor=none;" vertex="1" parent="1">
                    <mxGeometry x="650" y="540" width="60" height="63" as="geometry"/>
                </mxCell>
            </root>
        </mxGraphModel>
    </diagram>
</mxfile>